<svg xmlns="http://www.w3.org/2000/svg" viewBox="0 0 400 400" role="img">
<title>exp(−x²)</title>
<rect width="400" height="400" fill="white"/>
<g font-family="sans-serif" font-size="16" fill="#333">
<text x="200" y="28" text-anchor="middle">exp(−x²)</text>
<path d="M54 48V344" stroke="#e0e0e0"/>
<text x="54" y="369" text-anchor="middle">-4</text>
<path d="M134 48V344" stroke="#e0e0e0"/>
<text x="134" y="369" text-anchor="middle">-2</text>
<path d="M214 48V344" stroke="#e0e0e0"/>
<text x="214" y="369" text-anchor="middle">0</text>
<path d="M294 48V344" stroke="#e0e0e0"/>
<text x="294" y="369" text-anchor="middle">2</text>
<path d="M374 48V344" stroke="#e0e0e0"/>
<text x="374" y="369" text-anchor="middle">4</text>
<path d="M54 324H374" stroke="#e0e0e0"/>
<text x="43" y="329" text-anchor="end">-1</text>
<path d="M54 196H374" stroke="#e0e0e0"/>
<text x="43" y="201" text-anchor="end">0</text>
<path d="M54 68H374" stroke="#e0e0e0"/>
<text x="43" y="73" text-anchor="end">1</text>
<path d="M54 48V344H374" fill="none" stroke="#888"/>
<text x="390" y="369">x</text>
<polyline points="54.00,196.00 55.60,196.00 57.20,196.00 58.80,196.00 60.40,196.00 62.00,196.00 63.60,196.00 65.20,196.00 66.80,196.00 68.40,196.00 70.00,196.00 71.60,196.00 73.20,196.00 74.80,196.00 76.40,196.00 78.00,196.00 79.60,196.00 81.20,196.00 82.80,196.00 84.40,196.00 86.00,196.00 87.60,195.99 89.20,195.99 90.80,195.99 92.40,195.99 94.00,195.98 95.60,195.98 97.20,195.97 98.80,195.97 100.40,195.96 102.00,195.95 103.60,195.94 105.20,195.92 106.80,195.90 108.40,195.88 110.00,195.85 111.60,195.82 113.20,195.78 114.80,195.73 116.40,195.67 118.00,195.60 119.60,195.51 121.20,195.41 122.80,195.29 124.40,195.15 126.00,194.99 127.60,194.80 129.20,194.57 130.80,194.31 132.40,194.01 134.00,193.66 135.60,193.25 137.20,192.79 138.80,192.27 140.40,191.67 142.00,190.99 143.60,190.22 145.20,189.36 146.80,188.39 148.40,187.31 150.00,186.10 151.60,184.77 153.20,183.30 154.80,181.68 156.40,179.91 158.00,177.97 159.60,175.87 161.20,173.59 162.80,171.13 164.40,168.49 166.00,165.67 167.60,162.67 169.20,159.49 170.80,156.13 172.40,152.60 174.00,148.91 175.60,145.07 177.20,141.09 178.80,136.99 180.40,132.79 182.00,128.51 183.60,124.16 185.20,119.78 186.80,115.39 188.40,111.02 190.00,106.70 191.60,102.46 193.20,98.33 194.80,94.34 196.40,90.53 198.00,86.93 199.60,83.56 201.20,80.46 202.80,77.65 204.40,75.16 206.00,73.02 207.60,71.24 209.20,69.83 210.80,68.82 212.40,68.20 214.00,68.00 215.60,68.20 217.20,68.82 218.80,69.83 220.40,71.24 222.00,73.02 223.60,75.16 225.20,77.65 226.80,80.46 228.40,83.56 230.00,86.93 231.60,90.53 233.20,94.34 234.80,98.33 236.40,102.46 238.00,106.70 239.60,111.02 241.20,115.39 242.80,119.78 244.40,124.16 246.00,128.51 247.60,132.79 249.20,136.99 250.80,141.09 252.40,145.07 254.00,148.91 255.60,152.60 257.20,156.13 258.80,159.49 260.40,162.67 262.00,165.67 263.60,168.49 265.20,171.13 266.80,173.59 268.40,175.87 270.00,177.97 271.60,179.91 273.20,181.68 274.80,183.30 276.40,184.77 278.00,186.10 279.60,187.31 281.20,188.39 282.80,189.36 284.40,190.22 286.00,190.99 287.60,191.67 289.20,192.27 290.80,192.79 292.40,193.25 294.00,193.66 295.60,194.01 297.20,194.31 298.80,194.57 300.40,194.80 302.00,194.99 303.60,195.15 305.20,195.29 306.80,195.41 308.40,195.51 310.00,195.60 311.60,195.67 313.20,195.73 314.80,195.78 316.40,195.82 318.00,195.85 319.60,195.88 321.20,195.90 322.80,195.92 324.40,195.94 326.00,195.95 327.60,195.96 329.20,195.97 330.80,195.97 332.40,195.98 334.00,195.98 335.60,195.99 337.20,195.99 338.80,195.99 340.40,195.99 342.00,196.00 343.60,196.00 345.20,196.00 346.80,196.00 348.40,196.00 350.00,196.00 351.60,196.00 353.20,196.00 354.80,196.00 356.40,196.00 358.00,196.00 359.60,196.00 361.20,196.00 362.80,196.00 364.40,196.00 366.00,196.00 367.60,196.00 369.20,196.00 370.80,196.00 372.40,196.00 374.00,196.00" fill="none" stroke="#417dc1" stroke-width="3"/>
</g></svg>